<?xml version="1.0" encoding="UTF-8" standalone="no"?>
<!-- Created with Inkscape (http://www.inkscape.org/) -->

<svg
   xmlns:dc="http://purl.org/dc/elements/1.1/"
   xmlns:cc="http://creativecommons.org/ns#"
   xmlns:rdf="http://www.w3.org/1999/02/22-rdf-syntax-ns#"
   xmlns:svg="http://www.w3.org/2000/svg"
   xmlns="http://www.w3.org/2000/svg"
   xmlns:sodipodi="http://sodipodi.sourceforge.net/DTD/sodipodi-0.dtd"
   xmlns:inkscape="http://www.inkscape.org/namespaces/inkscape"
   width="210mm"
   height="297mm"
   viewBox="0 0 744.09448819 1052.3622047"
   id="svg2"
   version="1.1"
   inkscape:version="0.91 r13725"
   sodipodi:docname="description.svg">
  <defs
     id="defs4">
    <pattern
       y="0"
       x="0"
       height="6"
       width="6"
       patternUnits="userSpaceOnUse"
       id="EMFhbasepattern" />
  </defs>
  <sodipodi:namedview
     id="base"
     pagecolor="#ffffff"
     bordercolor="#666666"
     borderopacity="1.0"
     inkscape:pageopacity="0.0"
     inkscape:pageshadow="2"
     inkscape:zoom="1.4"
     inkscape:cx="-672.47243"
     inkscape:cy="1171.2135"
     inkscape:document-units="px"
     inkscape:current-layer="layer1"
     showgrid="false"
     inkscape:window-width="1920"
     inkscape:window-height="1017"
     inkscape:window-x="1272"
     inkscape:window-y="-8"
     inkscape:window-maximized="1" />
  <metadata
     id="metadata7">
    <rdf:RDF>
      <cc:Work
         rdf:about="">
        <dc:format>image/svg+xml</dc:format>
        <dc:type
           rdf:resource="http://purl.org/dc/dcmitype/StillImage" />
        <dc:title></dc:title>
      </cc:Work>
    </rdf:RDF>
  </metadata>
  <g
     inkscape:label="Layer 1"
     inkscape:groupmode="layer"
     id="layer1">
    <text
       xml:space="preserve"
       style="font-style:normal;font-weight:normal;font-size:80px;line-height:125%;font-family:sans-serif;letter-spacing:0px;word-spacing:0px;fill:#000000;fill-opacity:1;stroke:none;stroke-width:1px;stroke-linecap:butt;stroke-linejoin:miter;stroke-opacity:1"
       x="-543.40833"
       y="-302.75742"
       id="text4312"
       sodipodi:linespacing="125%"
       inkscape:export-xdpi="93.620003"
       inkscape:export-ydpi="93.620003"><tspan
         sodipodi:role="line"
         x="-540.25891"
         y="-302.75742"
         id="tspan4316"
         style="font-style:normal;font-variant:normal;font-weight:normal;font-stretch:normal;font-size:25px;font-family:Constantia;-inkscape-font-specification:Constantia;text-align:center;text-anchor:middle;fill:#222222;fill-opacity:1"><tspan
   style="font-style:normal;font-variant:normal;font-weight:500;font-stretch:normal;font-size:30px;font-family:'Coneria Script Demo';-inkscape-font-specification:'Coneria Script Demo Medium'"
   id="tspan4416"><tspan
   style="font-size:27.5px;fill:#027377;fill-opacity:1"
   id="tspan4468">Milí hosté</tspan>,</tspan> bude nám ctí, když přijmete obdržené pozvání a svou přítomností nás podpoříte v našem </tspan><tspan
         sodipodi:role="line"
         x="-543.40833"
         y="-267.76913"
         style="font-style:normal;font-variant:normal;font-weight:normal;font-stretch:normal;font-size:25px;font-family:Constantia;-inkscape-font-specification:Constantia;text-align:center;text-anchor:middle;fill:#222222;fill-opacity:1"
         id="tspan4334">svatebním dnu, který vnímáme nejen jako oslavu naší lásky, ale také jako společné setkání rodiny a přátel.</tspan><tspan
         sodipodi:role="line"
         x="-543.40833"
         y="-236.51915"
         id="tspan4320"
         style="font-style:normal;font-variant:normal;font-weight:normal;font-stretch:normal;font-size:25px;font-family:Constantia;-inkscape-font-specification:Constantia;text-align:center;text-anchor:middle;fill:#222222;fill-opacity:1" /><tspan
         sodipodi:role="line"
         x="-543.40833"
         y="-199.38965"
         style="font-style:normal;font-variant:normal;font-weight:normal;font-stretch:normal;font-size:25px;font-family:Constantia;-inkscape-font-specification:Constantia;text-align:center;text-anchor:middle"
         id="tspan4336"><tspan
   style="fill:#222222;fill-opacity:1"
   id="tspan4375">Svatbou s námi proletí</tspan><tspan
   style="font-style:normal;font-variant:normal;font-weight:500;font-stretch:normal;font-size:27.5px;font-family:'Coneria Script Demo';-inkscape-font-specification:'Coneria Script Demo Medium';fill:#027377;fill-opacity:1"
   id="tspan4354"> Kolibrík</tspan>, <tspan
   style="fill:#222222;fill-opacity:1"
   id="tspan4377">který je označován za</tspan><tspan
   style="font-style:normal;font-variant:normal;font-weight:500;font-stretch:normal;font-size:27.5px;font-family:'Coneria Script Demo';-inkscape-font-specification:'Coneria Script Demo Medium';text-align:center;text-anchor:middle;fill:#027377;fill-opacity:1"
   id="tspan4352"> Symbol Radosti a Harmonie</tspan>.</tspan><tspan
         sodipodi:role="line"
         x="-540.25891"
         y="-165.24414"
         id="tspan4324"
         style="font-style:normal;font-variant:normal;font-weight:normal;font-stretch:normal;font-size:25px;font-family:Constantia;-inkscape-font-specification:Constantia;text-align:center;text-anchor:middle;fill:#222222;fill-opacity:1">Veříme, že naše prvosrpnové setkání bude zcela naplněno těmito pocity, které si s sebou všichni poneseme </tspan><tspan
         sodipodi:role="line"
         x="-543.40833"
         y="-128.11464"
         id="tspan4326"
         style="font-style:normal;font-variant:normal;font-weight:normal;font-stretch:normal;font-size:25px;font-family:Constantia;-inkscape-font-specification:Constantia;text-align:center;text-anchor:middle;fill:#222222;fill-opacity:1">do dalších dnů i let života. <tspan
   style="font-style:normal;font-variant:normal;font-weight:500;font-stretch:normal;font-size:27.5px;font-family:'Coneria Script Demo';-inkscape-font-specification:'Coneria Script Demo Medium';fill:#027377;fill-opacity:1"
   id="tspan4391">Tešíme se na Vás!</tspan></tspan></text>
    <path
       style="fill:none;fill-opacity:1;fill-rule:evenodd;stroke:#027377;stroke-width:1.10441494px;stroke-linecap:butt;stroke-linejoin:miter;stroke-opacity:1"
       d="m -697.43526,-227.49709 c -0.52689,1.6738 0.51805,0.32638 0.74202,0.52416 0.035,0.0309 -0.022,0.0919 0,0.13104 0.0989,0.17471 0.19788,0.0874 0.29683,0.26208 0.0221,0.0391 -0.0221,0.0919 0,0.13104 0.0625,0.11049 0.23423,0.15159 0.29682,0.26207 0.0443,0.0782 -0.0443,0.18395 0,0.2621 0.0313,0.0553 0.10962,0.0796 0.14839,0.13104 0.17054,0.22586 0.14841,0.19807 0.14841,0.39311 0,0.0437 0.0495,0.13104 0,0.13104 -0.0495,0 -0.035,-0.16192 0,-0.13104 0.0782,0.0691 0.11337,0.16943 0.14839,0.26208 0.0136,0.0362 0,0.33752 0,0.39313 0,0.0437 -0.0221,0.0919 0,0.13103 0.0313,0.0553 0.11698,0.0757 0.1484,0.13105 0.0221,0.0392 0,0.0874 0,0.13104 0,0.13104 0,0.26208 0,0.39312 0.89583,0.0669 -0.03,-0.49771 0.14843,-0.65521 0.035,-0.0309 0.11336,0.0309 0.14839,0 0.0699,-0.0618 -0.0699,-0.2003 0,-0.26208 0.035,-0.0309 0.11337,0.0309 0.14842,0 0.0699,-0.0617 -0.0699,-0.2003 0,-0.26208 0.035,-0.0309 0.11336,0.0309 0.1484,0 0.0346,-0.0305 -0.0309,-0.20741 0,-0.26208 0.0462,-0.0816 0.25062,-0.18052 0.29682,-0.26207 0.0221,-0.0391 -0.035,-0.10015 0,-0.13104 0.035,-0.0309 0.11336,0.0309 0.14841,0 0.035,-0.0309 -0.035,-0.10015 0,-0.13104 0.035,-0.0309 0.11337,0.0309 0.14839,0 0.0699,-0.0618 -0.0699,-0.20031 0,-0.2621 0.0699,-0.0618 0.22686,0.0618 0.29682,0 0.035,-0.0309 -0.035,-0.10015 0,-0.13104 0.035,-0.0309 0.10422,0.0196 0.14839,0 0.0625,-0.0276 0.0989,-0.0874 0.14843,-0.13103 0.0989,-0.0874 0.19786,-0.17471 0.29682,-0.26208 0.0495,-0.0437 0.082,-0.11151 0.14839,-0.13104 0.23929,-0.0704 0.50784,-0.0483 0.74202,-0.13104 0.046,-0.0162 -0.035,-0.10015 0,-0.13104 0.035,-0.0309 0.11337,0.0309 0.14841,0 0.035,-0.0309 -0.035,-0.10014 0,-0.13104 0.0699,-0.0618 0.22687,0.0617 0.29682,0 0.035,-0.0309 -0.035,-0.10015 0,-0.13105 0.035,-0.0309 0.11338,0.0309 0.14841,0 0.035,-0.0309 -0.035,-0.10014 0,-0.13103 0.035,-0.0309 0.0989,0 0.14842,0 0.0495,0 0.0989,0 0.1484,0 0.39574,0 -0.0495,0.0437 0.14842,-0.13105 0.035,-0.0309 0.0989,0 0.14839,0 0.1484,0 0.2968,0 0.4452,0 0.14841,0 0.29683,0 0.44523,0 0.0495,0 0.11337,0.0309 0.1484,0 0.1979,-0.1747 -0.24733,-0.13104 0.14842,-0.13104"
       id="path4369"
       inkscape:connector-curvature="0"
       inkscape:export-xdpi="93.620003"
       inkscape:export-ydpi="93.620003" />
    <path
       style="fill:none;fill-opacity:1;fill-rule:evenodd;stroke:#027377;stroke-width:1.10441494px;stroke-linecap:butt;stroke-linejoin:miter;stroke-opacity:1"
       d="m -483.32977,-153.37948 c -0.52689,1.6738 0.51805,0.32638 0.74202,0.52416 0.035,0.0309 -0.022,0.0919 0,0.13104 0.0989,0.17471 0.19788,0.0874 0.29683,0.26208 0.0221,0.0391 -0.0221,0.0919 0,0.13104 0.0625,0.11049 0.23423,0.15159 0.29682,0.26207 0.0443,0.0782 -0.0443,0.18395 0,0.2621 0.0313,0.0553 0.10962,0.0796 0.14839,0.13104 0.17054,0.22586 0.14841,0.19807 0.14841,0.39311 0,0.0437 0.0495,0.13104 0,0.13104 -0.0495,0 -0.035,-0.16192 0,-0.13104 0.0782,0.0691 0.11337,0.16943 0.14839,0.26208 0.0136,0.0362 0,0.33752 0,0.39313 0,0.0437 -0.0221,0.0919 0,0.13103 0.0313,0.0553 0.11698,0.0757 0.1484,0.13105 0.0221,0.0392 0,0.0874 0,0.13104 0,0.13104 0,0.26208 0,0.39312 0.89583,0.0669 -0.03,-0.49771 0.14843,-0.65521 0.035,-0.0309 0.11336,0.0309 0.14839,0 0.0699,-0.0618 -0.0699,-0.2003 0,-0.26208 0.035,-0.0309 0.11337,0.0309 0.14842,0 0.0699,-0.0617 -0.0699,-0.2003 0,-0.26208 0.035,-0.0309 0.11336,0.0309 0.1484,0 0.0346,-0.0305 -0.0309,-0.20741 0,-0.26208 0.0462,-0.0816 0.25062,-0.18052 0.29682,-0.26207 0.0221,-0.0391 -0.035,-0.10015 0,-0.13104 0.035,-0.0309 0.11336,0.0309 0.14841,0 0.035,-0.0309 -0.035,-0.10015 0,-0.13104 0.035,-0.0309 0.11337,0.0309 0.14839,0 0.0699,-0.0618 -0.0699,-0.20031 0,-0.2621 0.0699,-0.0618 0.22686,0.0618 0.29682,0 0.035,-0.0309 -0.035,-0.10015 0,-0.13104 0.035,-0.0309 0.10422,0.0196 0.14839,0 0.0625,-0.0276 0.0989,-0.0874 0.14843,-0.13103 0.0989,-0.0874 0.19786,-0.17471 0.29682,-0.26208 0.0495,-0.0437 0.082,-0.11151 0.14839,-0.13104 0.23929,-0.0704 0.50784,-0.0483 0.74202,-0.13104 0.046,-0.0162 -0.035,-0.10015 0,-0.13104 0.035,-0.0309 0.11337,0.0309 0.14841,0 0.035,-0.0309 -0.035,-0.10014 0,-0.13104 0.0699,-0.0618 0.22687,0.0617 0.29682,0 0.035,-0.0309 -0.035,-0.10015 0,-0.13105 0.035,-0.0309 0.11338,0.0309 0.14841,0 0.035,-0.0309 -0.035,-0.10014 0,-0.13103 0.035,-0.0309 0.0989,0 0.14842,0 0.0495,0 0.0989,0 0.1484,0 0.39574,0 -0.0495,0.0437 0.14842,-0.13105 0.035,-0.0309 0.0989,0 0.14839,0 0.1484,0 0.2968,0 0.4452,0 0.14841,0 0.29683,0 0.44523,0 0.0495,0 0.11337,0.0309 0.1484,0 0.1979,-0.1747 -0.24733,-0.13104 0.14842,-0.13104"
       id="path4369-1"
       inkscape:connector-curvature="0"
       inkscape:export-xdpi="93.620003"
       inkscape:export-ydpi="93.620003" />
  </g>
</svg>
